<svg width="102" height="64" viewBox="0 0 102 64" fill="none" xmlns="http://www.w3.org/2000/svg">
<path d="M18.2781 36.884C25.2981 36.884 29.8341 33.896 29.8341 28.28C29.8341 23.024 24.6861 19.46 17.0181 19.46C10.2141 19.46 5.57011 22.592 5.57011 28.028C5.57011 33.356 10.7901 36.884 18.2781 36.884ZM1.97011 43.976L2.18611 46.964C2.33011 48.224 2.97811 48.512 3.66211 48.548L6.36211 48.08L32.3181 47.864C32.8941 47.864 33.0741 47.72 33.0741 47.036V44.192C33.0741 43.796 32.7861 43.508 32.3901 43.508L22.6701 43.58C22.4181 43.58 21.5541 43.688 21.2661 43.76L21.2301 43.724V40.088C21.4821 38.612 21.0501 37.676 17.5581 37.676C15.8661 37.676 14.6061 38.108 14.1381 38.756C14.0301 39.116 14.1741 39.512 14.5341 39.692C14.6421 39.836 14.7141 40.088 14.7141 40.448V43.688L14.6781 43.724C14.3901 43.652 13.5261 43.544 13.2741 43.544L6.68611 43.508L2.65411 43.22C2.07811 43.148 1.89811 43.292 1.97011 43.976ZM11.7621 26.264C11.7621 24.536 12.9861 23.528 15.2541 23.528C19.7181 23.528 23.6421 27.128 23.6421 30.044C23.6421 31.808 22.2741 32.816 20.1141 32.816C15.7221 32.816 11.7621 29.252 11.7621 26.264ZM40.2367 29.468C45.7447 29.504 52.1887 29.432 56.0047 29.396C57.4447 29.396 59.0287 29.396 60.7567 29.18C63.1687 28.784 63.7807 27.74 63.4207 26.012L63.0607 24.248C62.9527 23.708 62.7727 23.6 62.1967 23.924C60.7927 24.5 58.0927 25.184 55.3207 25.184H46.4647V21.62C46.8247 19.28 46.2487 17.804 42.5047 17.804C39.8047 17.804 38.4367 18.776 38.2567 20.108C38.2207 20.288 38.3647 20.468 38.5807 20.468C38.9767 20.576 39.3727 20.864 39.4807 21.728V28.712C39.4807 29.144 39.8047 29.468 40.2367 29.468ZM35.5927 31.484L35.8087 34.112C35.9527 35.3 36.6007 35.552 37.2847 35.588L39.9847 35.192L65.6887 35.084C66.2287 35.084 66.4087 34.94 66.4087 34.256V31.664C66.4087 31.268 66.1207 31.016 65.7247 31.016H40.1647L36.2407 30.728C35.7007 30.656 35.5207 30.8 35.5927 31.484ZM39.8767 37.64L40.0207 38.972C40.2367 40.232 40.8847 40.556 41.5687 40.592L44.2687 40.16H56.0047V42.176L41.0287 42.248C40.4167 42.248 40.2367 42.392 40.2367 43.076V44.372C40.2727 45.272 40.6327 45.704 41.0647 45.884L41.1007 50.312C41.1007 50.924 41.2447 51.104 41.9287 51.104C46.6807 51.14 53.1247 51.068 56.7247 51.032C58.1647 51.032 59.4967 51.068 61.1167 50.924C63.5287 50.564 64.1407 49.52 63.8167 47.792L63.7087 47.324C63.6007 46.748 63.4207 46.604 62.8087 46.856C61.2967 47.36 58.9567 47.684 56.4007 47.684H48.6607C48.4087 47.684 47.5447 47.792 47.2567 47.864L47.2207 47.828V45.56H61.8727C62.4847 45.56 62.6647 45.416 62.6647 44.732V42.968C62.6647 42.536 62.3767 42.248 61.9807 42.248H60.4687V41.816C62.1967 41.42 62.8087 40.52 62.8087 38.576V37.568C62.8087 36.956 62.6647 36.776 61.9807 36.776L40.5967 36.812C39.9847 36.812 39.8047 36.956 39.8767 37.64ZM79.9433 36.272C77.1713 36.272 75.4433 33.716 75.4433 32.24C75.4433 31.124 76.2353 30.548 77.4953 30.548C80.3753 30.548 82.0673 33.14 82.0673 34.508C82.0673 35.66 81.2033 36.272 79.9433 36.272ZM67.9193 42.644L68.2793 45.668C68.4953 46.892 69.1793 47.144 69.8633 47.144L72.5273 46.496L83.2193 45.74C84.6593 45.668 86.0273 45.524 87.1793 45.344C89.6273 44.912 90.2393 43.832 89.8793 42.104L89.7353 41.24C89.6633 40.844 89.3033 40.664 88.9433 40.808C87.7193 41.24 86.1353 41.78 84.4073 41.78H82.6433C82.3913 41.78 81.5273 41.888 81.2393 41.96L81.2033 41.924V39.368C85.4153 38.9 88.0073 36.776 88.0073 33.608C88.0073 29.792 84.2993 27.452 78.1793 27.452C72.9953 27.452 69.5033 29.396 69.5033 32.996C69.5033 35.948 71.6633 38.144 75.2993 39.044C75.3713 39.188 75.4073 39.368 75.4073 39.62L75.4433 41.852V42.14L75.4073 42.176C75.1193 42.104 74.2553 41.996 74.0033 41.996H70.2233L68.5673 41.852C67.9913 41.816 67.8113 41.96 67.9193 42.644ZM68.1713 22.52L68.5313 24.896C68.7833 26.12 69.4313 26.408 70.1153 26.444L72.7793 26.012H87.5033C88.1513 26.012 88.3313 25.868 88.3313 25.184V22.808C88.3313 22.412 88.0433 22.088 87.6473 22.088L83.1113 22.124C82.8593 22.124 81.9233 22.196 81.6353 22.268L81.5993 22.232V21.044C81.8513 19.28 81.4193 18.164 78.0353 18.164C76.3793 18.164 75.1193 18.74 74.6873 19.568C74.6153 19.928 74.7953 20.36 75.1193 20.54C75.2273 20.72 75.3353 21.044 75.3353 21.44V22.196L75.2993 22.232C74.9753 22.16 74.0753 22.016 73.8233 22.016L68.8193 21.764C68.2073 21.728 68.0633 21.872 68.1713 22.52ZM89.9513 19.424C89.9513 19.604 90.0593 19.784 90.2753 19.82C90.5993 19.928 90.9593 20.216 91.0673 21.044V51.788C91.0673 52.112 91.2113 52.256 91.5353 52.256H93.5513C96.1073 52.256 97.2953 51.104 97.2953 48.548V20.936C97.6193 18.596 97.0793 17.12 93.7313 17.12C91.3193 17.12 90.1313 18.092 89.9513 19.424Z" fill="black"/>
</svg>
