<svg width="44" height="44" viewBox="0 0 44 44" fill="none" xmlns="http://www.w3.org/2000/svg">
<rect width="44" height="44" rx="22" fill="black"/>
<path fill-rule="evenodd" clip-rule="evenodd" d="M12.6484 15.4C12.6484 15.0687 12.9171 14.8 13.2484 14.8H30.7484C31.0798 14.8 31.3484 15.0687 31.3484 15.4C31.3484 15.7314 31.0798 16 30.7484 16H13.2484C12.9171 16 12.6484 15.7314 12.6484 15.4ZM12.6484 22.0001C12.6484 21.6687 12.9171 21.4001 13.2484 21.4001H30.7484C31.0798 21.4001 31.3484 21.6687 31.3484 22.0001C31.3484 22.3314 31.0798 22.6001 30.7484 22.6001H13.2484C12.9171 22.6001 12.6484 22.3314 12.6484 22.0001ZM13.2484 28C12.9171 28 12.6484 28.2687 12.6484 28.6C12.6484 28.9314 12.9171 29.2 13.2484 29.2H23.0484C23.3798 29.2 23.6484 28.9314 23.6484 28.6C23.6484 28.2687 23.3798 28 23.0484 28H13.2484Z" fill="white"/>
</svg>
